<svg width="48" height="48" viewBox="0 0 48 48" fill="none" xmlns="http://www.w3.org/2000/svg">
<path d="M0 24C0 10.7452 10.7452 0 24 0C37.2548 0 48 10.7452 48 24C48 37.2548 37.2548 48 24 48C10.7452 48 0 37.2548 0 24Z" fill="#E1EDFE"/>
<path d="M34.4999 33.3333C34.7973 33.3336 35.0833 33.4475 35.2995 33.6516C35.5158 33.8557 35.6459 34.1347 35.6633 34.4316C35.6807 34.7284 35.5842 35.0207 35.3933 35.2488C35.2024 35.4768 34.9317 35.6233 34.6364 35.6585L34.4999 35.6666H13.4999C13.2026 35.6663 12.9166 35.5524 12.7003 35.3483C12.4841 35.1442 12.354 34.8652 12.3366 34.5683C12.3192 34.2715 12.4157 33.9792 12.6066 33.7512C12.7974 33.5231 13.0682 33.3766 13.3634 33.3415L13.4999 33.3333H34.4999ZM19.2516 14.8731L26.9084 21.1265L32.2436 20.129C32.8861 20.009 33.5493 20.0713 34.1582 20.3088C34.7671 20.5463 35.2973 20.9496 35.6888 21.473L35.8778 21.7285C36.0878 22.0283 36.2464 22.3398 36.1636 22.7411C36.0375 23.3597 35.7414 23.9308 35.3086 24.3904C34.8758 24.85 34.3235 25.1798 33.7136 25.3428L16.0759 30.0666C15.73 30.1592 15.3639 30.1434 15.0272 30.0214C14.6904 29.8993 14.3992 29.6769 14.1929 29.3841L11.0849 24.9718C11.0311 24.895 10.9966 24.8063 10.9843 24.7133C10.972 24.6203 10.9823 24.5257 11.0144 24.4376C11.0464 24.3494 11.0993 24.2703 11.1684 24.2069C11.2376 24.1435 11.321 24.0977 11.4116 24.0735L13.3051 23.5648C13.5835 23.4901 13.876 23.4853 14.1566 23.5508C14.4373 23.6164 14.6974 23.7502 14.9139 23.9405L15.7843 24.7058L15.7959 24.7081L20.6959 22.7948C20.6977 22.7941 20.6993 22.7931 20.7006 22.7916C20.7018 22.7902 20.7027 22.7885 20.7032 22.7867C20.7037 22.7849 20.7037 22.7829 20.7032 22.7811C20.7028 22.7792 20.7019 22.7775 20.7006 22.7761L15.1881 16.062C15.1263 15.9866 15.0843 15.8969 15.0661 15.8011C15.0479 15.7053 15.0539 15.6065 15.0838 15.5136C15.1136 15.4208 15.1662 15.3369 15.2368 15.2696C15.3074 15.2024 15.3938 15.1539 15.4879 15.1286L17.6929 14.5383C17.9607 14.4667 18.2416 14.4597 18.5126 14.5179C18.7836 14.5761 19.0369 14.6979 19.2516 14.8731Z" fill="#5664E1"/>
</svg>
