<svg width="17" height="16" viewBox="0 0 17 16" fill="none" xmlns="http://www.w3.org/2000/svg">
<path d="M6.2041 11.333C6.47368 11.3331 6.73502 11.427 6.94336 11.5977L7.04492 11.6904L7.8623 12.5088L8.21582 12.8623L9.40332 11.6748C9.59412 11.4841 9.84509 11.3654 10.1133 11.3389L10.251 11.333H13.5811C14.0067 11.333 14.4215 11.4689 14.7646 11.7207C15.065 11.9411 15.2967 12.2405 15.4355 12.584L15.4893 12.7334L15.5264 12.8633L15.9102 14.4014C15.9364 14.5065 15.9401 14.6161 15.9199 14.7227C15.8998 14.8292 15.8568 14.9303 15.7939 15.0186C15.731 15.1069 15.6488 15.1805 15.5547 15.2344C15.4607 15.2881 15.3559 15.3196 15.248 15.3291L15.1816 15.333H1.25C1.14159 15.333 1.03398 15.3101 0.935547 15.2646C0.837186 15.2193 0.750034 15.1527 0.679688 15.0703C0.609396 14.988 0.55774 14.8913 0.52832 14.7871C0.499912 14.6863 0.491951 14.5802 0.506836 14.4766L0.522461 14.4014L0.910156 12.8477C1.01341 12.4349 1.24584 12.0657 1.57324 11.7939C1.9007 11.5222 2.30669 11.3623 2.73145 11.3369L2.73047 11.3359L2.86523 11.333H6.2041ZM8.21582 0.5C8.80056 0.5 9.4802 0.644013 10.0654 0.807617C11.1555 1.11163 11.8266 2.10975 11.8789 3.19531L11.8828 3.34277V6.66895C11.8828 7.80529 11.2009 8.87626 10.0654 9.19238C9.47922 9.35544 8.8003 9.5 8.21582 9.5C7.63119 9.49993 6.95227 9.35595 6.36719 9.19238C5.28064 8.88939 4.60992 7.89686 4.55371 6.81543L4.5498 6.65723V3.33008C4.5498 2.19449 5.23181 1.12274 6.36719 0.806641L6.36621 0.805664C6.95277 0.643332 7.63139 0.500074 8.21582 0.5Z" fill="#0E0E12" stroke="#0E0E12"/>
</svg>
